# Blender 5.2.2 LTS
# www.blender.org
mtllib wind_impact_particle.mtl
o Cylinder.004
v -3.163813 1.000000 -2.447506
v -0.520932 -1.000000 -2.313559
v -3.689470 1.000000 -1.545255
v -1.101974 -1.000000 -2.099899
v -3.963696 1.000000 -0.537696
v -1.607919 -1.000000 -1.743135
v -3.967802 1.000000 0.506505
v -2.004287 -1.000000 -1.267579
v -3.701509 1.000000 1.516189
v -2.264066 -1.000000 -0.705639
v -3.182965 1.000000 2.422547
v -2.369553 -1.000000 -0.095612
v -2.447506 1.000000 3.163813
v -2.313559 -1.000000 0.520932
v -1.545255 1.000000 3.689470
v -2.099899 -1.000000 1.101975
v -0.537696 1.000000 3.963696
v -1.743135 -1.000000 1.607920
v 0.506505 1.000000 3.967802
v -1.267579 -1.000000 2.004287
v 1.516189 1.000000 3.701509
v -0.705639 -1.000000 2.264066
v 2.422547 1.000000 3.182965
v -0.095612 -1.000000 2.369553
v 3.163813 1.000000 2.447506
v 0.520932 -1.000000 2.313559
v 3.689470 1.000000 1.545255
v 1.101974 -1.000000 2.099899
v 3.963696 1.000000 0.537696
v 1.607920 -1.000000 1.743135
v 3.967802 1.000000 -0.506505
v 2.004288 -1.000000 1.267579
v 3.701509 1.000000 -1.516189
v 2.264066 -1.000000 0.705639
v 3.182965 1.000000 -2.422547
v 2.369553 -1.000000 0.095612
v 2.447506 1.000000 -3.163813
v 2.313559 -1.000000 -0.520932
v 1.545255 1.000000 -3.689470
v 2.099899 -1.000000 -1.101974
v 0.537696 1.000000 -3.963696
v 1.743135 -1.000000 -1.607919
v -0.506505 1.000000 -3.967802
v 1.267579 -1.000000 -2.004287
v -1.516189 1.000000 -3.701509
v 0.705639 -1.000000 -2.264066
v -2.422547 1.000000 -3.182965
v 0.095612 -1.000000 -2.369553
v -2.681124 0.500000 -2.391712
v -1.973762 0.000000 -2.500641
v -1.191928 -0.500000 -2.509978
v -1.800944 -0.500000 -2.115958
v -2.553721 0.000000 -1.904587
v -3.208788 0.500000 -1.616291
v -2.287229 -0.500000 -1.577740
v -2.959649 0.000000 -1.178738
v -3.517778 0.500000 -0.730722
v -2.617642 -0.500000 -0.932002
v -3.163881 0.000000 -0.372560
v -3.587038 0.500000 0.204646
v -2.769668 -0.500000 -0.222749
v -3.152500 0.000000 0.459007
v -3.411846 0.500000 1.126065
v -2.732946 -0.500000 0.501684
v -2.926281 0.000000 1.259294
v -3.004143 0.500000 1.970747
v -2.509978 -0.500000 1.191928
v -2.500641 0.000000 1.973762
v -2.391712 0.500000 2.681124
v -2.115958 -0.500000 1.800944
v -1.904587 0.000000 2.553721
v -1.616291 0.500000 3.208788
v -1.577740 -0.500000 2.287229
v -1.178738 0.000000 2.959649
v -0.730722 0.500000 3.517778
v -0.932002 -0.500000 2.617642
v -0.372560 0.000000 3.163881
v 0.204646 0.500000 3.587038
v -0.222749 -0.500000 2.769668
v 0.459008 0.000000 3.152500
v 1.126065 0.500000 3.411846
v 0.501684 -0.500000 2.732946
v 1.259294 0.000000 2.926281
v 1.970746 0.500000 3.004143
v 1.191928 -0.500000 2.509978
v 1.973762 0.000000 2.500641
v 2.681124 0.500000 2.391712
v 1.800944 -0.500000 2.115958
v 2.553721 0.000000 1.904587
v 3.208788 0.500000 1.616291
v 2.287229 -0.500000 1.577740
v 2.959649 0.000000 1.178738
v 3.517778 0.500000 0.730722
v 2.617643 -0.500000 0.932002
v 3.163881 0.000000 0.372560
v 3.587038 0.500000 -0.204646
v 2.769668 -0.500000 0.222749
v 3.152500 0.000000 -0.459007
v 3.411846 0.500000 -1.126065
v 2.732946 -0.500000 -0.501684
v 2.926281 0.000000 -1.259294
v 3.004143 0.500000 -1.970746
v 2.509978 -0.500000 -1.191928
v 2.500641 0.000000 -1.973762
v 2.391712 0.500000 -2.681124
v 2.115958 -0.500000 -1.800944
v 1.904587 0.000000 -2.553721
v 1.616291 0.500000 -3.208788
v 1.577740 -0.500000 -2.287229
v 1.178738 0.000000 -2.959649
v 0.730721 0.500000 -3.517778
v 0.932002 -0.500000 -2.617643
v 0.372560 0.000000 -3.163881
v -0.204646 0.500000 -3.587038
v 0.222749 -0.500000 -2.769668
v -0.459007 0.000000 -3.152500
v -1.126065 0.500000 -3.411846
v -0.501684 -0.500000 -2.732946
v -1.259294 0.000000 -2.926281
v -1.970746 0.500000 -3.004143
vn -0.6130 -0.6314 -0.4749
vn -0.2127 -0.6330 -0.7444
vn -0.7150 -0.6314 -0.3000
vn -0.3981 -0.6330 -0.6639
vn -0.7683 -0.6314 -0.1047
vn -0.5564 -0.6330 -0.5383
vn -0.7692 -0.6314 0.0977
vn -0.6768 -0.6330 -0.3759
vn -0.7178 -0.6314 0.2934
vn -0.7510 -0.6330 -0.1879
vn -0.6173 -0.6314 0.4692
vn -0.7741 -0.6330 0.0128
vn -0.4749 -0.6314 0.6130
vn -0.7444 -0.6330 0.2127
vn -0.3000 -0.6314 0.7150
vn -0.6639 -0.6330 0.3981
vn -0.1047 -0.6314 0.7683
vn -0.5383 -0.6330 0.5564
vn 0.0977 -0.6314 0.7692
vn -0.3759 -0.6330 0.6768
vn 0.2934 -0.6314 0.7178
vn -0.1879 -0.6330 0.7510
vn 0.4692 -0.6314 0.6173
vn 0.0128 -0.6330 0.7741
vn 0.6130 -0.6314 0.4749
vn 0.2127 -0.6330 0.7444
vn 0.7150 -0.6314 0.3000
vn 0.3981 -0.6330 0.6639
vn 0.7683 -0.6314 0.1047
vn 0.5564 -0.6330 0.5383
vn 0.7692 -0.6314 -0.0977
vn 0.6768 -0.6330 0.3759
vn 0.7178 -0.6314 -0.2934
vn 0.7510 -0.6330 0.1879
vn 0.6173 -0.6314 -0.4692
vn 0.7741 -0.6330 -0.0128
vn 0.4749 -0.6314 -0.6130
vn 0.7444 -0.6330 -0.2127
vn 0.3000 -0.6314 -0.7150
vn 0.6639 -0.6330 -0.3981
vn 0.1047 -0.6314 -0.7683
vn 0.5383 -0.6330 -0.5564
vn -0.0977 -0.6314 -0.7692
vn 0.3759 -0.6330 -0.6768
vn -0.2934 -0.6314 -0.7178
vn 0.1879 -0.6330 -0.7510
vn -0.4692 -0.6314 -0.6173
vn -0.0128 -0.6330 -0.7741
vn -0.5743 -0.6318 -0.5206
vn -0.4776 -0.6328 -0.6095
vn -0.3359 -0.6334 -0.6971
vn -0.5049 -0.6334 -0.5864
vn -0.6191 -0.6328 -0.4652
vn -0.6895 -0.6318 -0.3542
vn -0.6394 -0.6334 -0.4358
vn -0.7184 -0.6328 -0.2891
vn -0.7576 -0.6318 -0.1637
vn -0.7304 -0.6334 -0.2554
vn -0.7687 -0.6328 -0.0933
vn -0.7742 -0.6318 0.0380
vn -0.7716 -0.6334 -0.0577
vn -0.7667 -0.6328 0.1088
vn -0.7380 -0.6318 0.2371
vn -0.7603 -0.6334 0.1440
vn -0.7124 -0.6328 0.3036
vn -0.6515 -0.6318 0.4200
vn -0.6971 -0.6334 0.3359
vn -0.6095 -0.6328 0.4776
vn -0.5206 -0.6318 0.5743
vn -0.5864 -0.6334 0.5049
vn -0.4652 -0.6328 0.6191
vn -0.3542 -0.6318 0.6895
vn -0.4358 -0.6334 0.6394
vn -0.2891 -0.6328 0.7184
vn -0.1637 -0.6318 0.7576
vn -0.2554 -0.6334 0.7304
vn -0.0933 -0.6328 0.7687
vn 0.0380 -0.6318 0.7742
vn -0.0577 -0.6334 0.7716
vn 0.1088 -0.6328 0.7667
vn 0.2371 -0.6318 0.7380
vn 0.1440 -0.6334 0.7603
vn 0.3036 -0.6328 0.7124
vn 0.4200 -0.6318 0.6515
vn 0.3359 -0.6334 0.6971
vn 0.4776 -0.6328 0.6095
vn 0.5743 -0.6318 0.5206
vn 0.5049 -0.6334 0.5864
vn 0.6191 -0.6328 0.4652
vn 0.6895 -0.6318 0.3542
vn 0.6394 -0.6334 0.4358
vn 0.7184 -0.6328 0.2891
vn 0.7576 -0.6318 0.1637
vn 0.7304 -0.6334 0.2554
vn 0.7687 -0.6328 0.0933
vn 0.7742 -0.6318 -0.0380
vn 0.7716 -0.6334 0.0577
vn 0.7667 -0.6328 -0.1088
vn 0.7380 -0.6318 -0.2371
vn 0.7603 -0.6334 -0.1440
vn 0.7124 -0.6328 -0.3036
vn 0.6515 -0.6318 -0.4200
vn 0.6971 -0.6334 -0.3359
vn 0.6095 -0.6328 -0.4776
vn 0.5206 -0.6318 -0.5743
vn 0.5864 -0.6334 -0.5049
vn 0.4652 -0.6328 -0.6191
vn 0.3542 -0.6318 -0.6895
vn 0.4358 -0.6334 -0.6394
vn 0.2891 -0.6328 -0.7184
vn 0.1637 -0.6318 -0.7576
vn 0.2554 -0.6334 -0.7304
vn 0.0933 -0.6328 -0.7687
vn -0.0380 -0.6318 -0.7742
vn 0.0577 -0.6334 -0.7716
vn -0.1088 -0.6328 -0.7667
vn -0.2371 -0.6318 -0.7380
vn -0.1440 -0.6334 -0.7603
vn -0.3036 -0.6328 -0.7124
vn -0.4200 -0.6318 -0.6515
vt 1.000000 0.750000
vt 1.000000 1.000000
vt 0.958333 1.000000
vt 0.958333 0.750000
vt 0.916667 1.000000
vt 0.916667 0.750000
vt 0.875000 1.000000
vt 0.875000 0.750000
vt 0.833333 1.000000
vt 0.833333 0.750000
vt 0.791667 1.000000
vt 0.791667 0.750000
vt 0.750000 1.000000
vt 0.750000 0.750000
vt 0.708333 1.000000
vt 0.708333 0.750000
vt 0.666667 1.000000
vt 0.666667 0.750000
vt 0.625000 1.000000
vt 0.625000 0.750000
vt 0.583333 1.000000
vt 0.583333 0.750000
vt 0.541666 1.000000
vt 0.541666 0.750000
vt 0.500000 1.000000
vt 0.500000 0.750000
vt 0.458333 1.000000
vt 0.458333 0.750000
vt 0.416666 1.000000
vt 0.416666 0.750000
vt 0.375000 1.000000
vt 0.375000 0.750000
vt 0.333333 1.000000
vt 0.333333 0.750000
vt 0.291667 1.000000
vt 0.291667 0.750000
vt 0.250000 1.000000
vt 0.250000 0.750000
vt 0.208333 1.000000
vt 0.208333 0.750000
vt 0.166666 1.000000
vt 0.166666 0.750000
vt 0.125000 1.000000
vt 0.125000 0.750000
vt 0.083333 1.000000
vt 0.083333 0.750000
vt 0.041666 1.000000
vt 0.041666 0.750000
vt -0.000000 1.000000
vt -0.000000 0.750000
vt 0.041666 0.000000
vt 0.041666 0.250000
vt -0.000000 0.250000
vt -0.000000 0.000000
vt 0.041666 0.500000
vt -0.000000 0.500000
vt 0.083333 0.000000
vt 0.083333 0.250000
vt 0.083333 0.500000
vt 0.125000 0.000000
vt 0.125000 0.250000
vt 0.125000 0.500000
vt 0.166666 0.000000
vt 0.166666 0.250000
vt 0.166666 0.500000
vt 0.208333 0.000000
vt 0.208333 0.250000
vt 0.208333 0.500000
vt 0.250000 0.000000
vt 0.250000 0.250000
vt 0.250000 0.500000
vt 0.291667 0.000000
vt 0.291667 0.250000
vt 0.291667 0.500000
vt 0.333333 0.000000
vt 0.333333 0.250000
vt 0.333333 0.500000
vt 0.375000 0.000000
vt 0.375000 0.250000
vt 0.375000 0.500000
vt 0.416666 0.000000
vt 0.416666 0.250000
vt 0.416666 0.500000
vt 0.458333 0.000000
vt 0.458333 0.250000
vt 0.458333 0.500000
vt 0.500000 0.000000
vt 0.500000 0.250000
vt 0.500000 0.500000
vt 0.541666 0.000000
vt 0.541666 0.250000
vt 0.541666 0.500000
vt 0.583333 0.000000
vt 0.583333 0.250000
vt 0.583333 0.500000
vt 0.625000 0.000000
vt 0.625000 0.250000
vt 0.625000 0.500000
vt 0.666667 0.000000
vt 0.666667 0.250000
vt 0.666667 0.500000
vt 0.708333 0.000000
vt 0.708333 0.250000
vt 0.708333 0.500000
vt 0.750000 0.000000
vt 0.750000 0.250000
vt 0.750000 0.500000
vt 0.791667 0.000000
vt 0.791667 0.250000
vt 0.791667 0.500000
vt 0.833333 0.000000
vt 0.833333 0.250000
vt 0.833333 0.500000
vt 0.875000 0.000000
vt 0.875000 0.250000
vt 0.875000 0.500000
vt 0.916667 0.000000
vt 0.916667 0.250000
vt 0.916667 0.500000
vt 0.958333 0.000000
vt 0.958333 0.250000
vt 0.958333 0.500000
vt 1.000000 0.000000
vt 1.000000 0.250000
vt 1.000000 0.500000
s 1
f 51/1/51 2/2/2 4/3/4 52/4/52
f 52/4/52 4/3/4 6/5/6 55/6/55
f 55/6/55 6/5/6 8/7/8 58/8/58
f 58/8/58 8/7/8 10/9/10 61/10/61
f 61/10/61 10/9/10 12/11/12 64/12/64
f 64/12/64 12/11/12 14/13/14 67/14/67
f 67/14/67 14/13/14 16/15/16 70/16/70
f 70/16/70 16/15/16 18/17/18 73/18/73
f 73/18/73 18/17/18 20/19/20 76/20/76
f 76/20/76 20/19/20 22/21/22 79/22/79
f 79/22/79 22/21/22 24/23/24 82/24/82
f 82/24/82 24/23/24 26/25/26 85/26/85
f 85/26/85 26/25/26 28/27/28 88/28/88
f 88/28/88 28/27/28 30/29/30 91/30/91
f 91/30/91 30/29/30 32/31/32 94/32/94
f 94/32/94 32/31/32 34/33/34 97/34/97
f 97/34/97 34/33/34 36/35/36 100/36/100
f 100/36/100 36/35/36 38/37/38 103/38/103
f 103/38/103 38/37/38 40/39/40 106/40/106
f 106/40/106 40/39/40 42/41/42 109/42/109
f 109/42/109 42/41/42 44/43/44 112/44/112
f 112/44/112 44/43/44 46/45/46 115/46/115
f 115/46/115 46/45/46 48/47/48 118/48/118
f 118/48/118 48/47/48 2/49/2 51/50/51
f 47/51/47 120/52/120 49/53/49 1/54/1
f 120/52/120 119/55/119 50/56/50 49/53/49
f 119/55/119 118/48/118 51/50/51 50/56/50
f 45/57/45 117/58/117 120/52/120 47/51/47
f 117/58/117 116/59/116 119/55/119 120/52/120
f 116/59/116 115/46/115 118/48/118 119/55/119
f 43/60/43 114/61/114 117/58/117 45/57/45
f 114/61/114 113/62/113 116/59/116 117/58/117
f 113/62/113 112/44/112 115/46/115 116/59/116
f 41/63/41 111/64/111 114/61/114 43/60/43
f 111/64/111 110/65/110 113/62/113 114/61/114
f 110/65/110 109/42/109 112/44/112 113/62/113
f 39/66/39 108/67/108 111/64/111 41/63/41
f 108/67/108 107/68/107 110/65/110 111/64/111
f 107/68/107 106/40/106 109/42/109 110/65/110
f 37/69/37 105/70/105 108/67/108 39/66/39
f 105/70/105 104/71/104 107/68/107 108/67/108
f 104/71/104 103/38/103 106/40/106 107/68/107
f 35/72/35 102/73/102 105/70/105 37/69/37
f 102/73/102 101/74/101 104/71/104 105/70/105
f 101/74/101 100/36/100 103/38/103 104/71/104
f 33/75/33 99/76/99 102/73/102 35/72/35
f 99/76/99 98/77/98 101/74/101 102/73/102
f 98/77/98 97/34/97 100/36/100 101/74/101
f 31/78/31 96/79/96 99/76/99 33/75/33
f 96/79/96 95/80/95 98/77/98 99/76/99
f 95/80/95 94/32/94 97/34/97 98/77/98
f 29/81/29 93/82/93 96/79/96 31/78/31
f 93/82/93 92/83/92 95/80/95 96/79/96
f 92/83/92 91/30/91 94/32/94 95/80/95
f 27/84/27 90/85/90 93/82/93 29/81/29
f 90/85/90 89/86/89 92/83/92 93/82/93
f 89/86/89 88/28/88 91/30/91 92/83/92
f 25/87/25 87/88/87 90/85/90 27/84/27
f 87/88/87 86/89/86 89/86/89 90/85/90
f 86/89/86 85/26/85 88/28/88 89/86/89
f 23/90/23 84/91/84 87/88/87 25/87/25
f 84/91/84 83/92/83 86/89/86 87/88/87
f 83/92/83 82/24/82 85/26/85 86/89/86
f 21/93/21 81/94/81 84/91/84 23/90/23
f 81/94/81 80/95/80 83/92/83 84/91/84
f 80/95/80 79/22/79 82/24/82 83/92/83
f 19/96/19 78/97/78 81/94/81 21/93/21
f 78/97/78 77/98/77 80/95/80 81/94/81
f 77/98/77 76/20/76 79/22/79 80/95/80
f 17/99/17 75/100/75 78/97/78 19/96/19
f 75/100/75 74/101/74 77/98/77 78/97/78
f 74/101/74 73/18/73 76/20/76 77/98/77
f 15/102/15 72/103/72 75/100/75 17/99/17
f 72/103/72 71/104/71 74/101/74 75/100/75
f 71/104/71 70/16/70 73/18/73 74/101/74
f 13/105/13 69/106/69 72/103/72 15/102/15
f 69/106/69 68/107/68 71/104/71 72/103/72
f 68/107/68 67/14/67 70/16/70 71/104/71
f 11/108/11 66/109/66 69/106/69 13/105/13
f 66/109/66 65/110/65 68/107/68 69/106/69
f 65/110/65 64/12/64 67/14/67 68/107/68
f 9/111/9 63/112/63 66/109/66 11/108/11
f 63/112/63 62/113/62 65/110/65 66/109/66
f 62/113/62 61/10/61 64/12/64 65/110/65
f 7/114/7 60/115/60 63/112/63 9/111/9
f 60/115/60 59/116/59 62/113/62 63/112/63
f 59/116/59 58/8/58 61/10/61 62/113/62
f 5/117/5 57/118/57 60/115/60 7/114/7
f 57/118/57 56/119/56 59/116/59 60/115/60
f 56/119/56 55/6/55 58/8/58 59/116/59
f 3/120/3 54/121/54 57/118/57 5/117/5
f 54/121/54 53/122/53 56/119/56 57/118/57
f 53/122/53 52/4/52 55/6/55 56/119/56
f 1/123/1 49/124/49 54/121/54 3/120/3
f 49/124/49 50/125/50 53/122/53 54/121/54
f 50/125/50 51/1/51 52/4/52 53/122/53
